<?xml version="1.0" encoding="UTF-8" standalone="no"?>
<svg
   width="16"
   height="16"
   fill="currentColor"
   class="bi bi-images"
   viewBox="0 0 16 16"
   version="1.1"
   id="svg16"
   sodipodi:docname="img-modify-white.svg"
   inkscape:version="1.2.2 (732a01da63, 2022-12-09)"
   xmlns:inkscape="http://www.inkscape.org/namespaces/inkscape"
   xmlns:sodipodi="http://sodipodi.sourceforge.net/DTD/sodipodi-0.dtd"
   xmlns="http://www.w3.org/2000/svg"
   xmlns:svg="http://www.w3.org/2000/svg">
  <defs
     id="defs20" />
  <sodipodi:namedview
     id="namedview18"
     pagecolor="#ffffff"
     bordercolor="#000000"
     borderopacity="0.25"
     inkscape:showpageshadow="2"
     inkscape:pageopacity="0.0"
     inkscape:pagecheckerboard="0"
     inkscape:deskcolor="#d1d1d1"
     showgrid="false"
     inkscape:zoom="51.8125"
     inkscape:cx="7.5367913"
     inkscape:cy="8.0096502"
     inkscape:window-width="1920"
     inkscape:window-height="1009"
     inkscape:window-x="-8"
     inkscape:window-y="-8"
     inkscape:window-maximized="1"
     inkscape:current-layer="svg16" />
  <path
     id="path12"
     d="M 4 1 A 2 2 0 0 0 2 3 A 2 2 0 0 0 0.001953125 5 L 0.001953125 13 A 2 2 0 0 0 2.0019531 15 L 12.001953 15 A 2 2 0 0 0 14.001953 13 A 2 2 0 0 0 16 11 L 16 3 A 2 2 0 0 0 14 1 L 4 1 z M 4 2 L 14 2 A 1 1 0 0 1 15 3 L 15 11 A 1 1 0 0 1 14.001953 12 L 14.001953 5 A 2 2 0 0 0 12.001953 3 L 3 3 A 1 1 0 0 1 4 2 z M 2.0019531 4 L 12.001953 4 A 1 1 0 0 1 13.001953 5 L 13.001953 10.5 L 11.224609 8.5527344 A 0.5 0.5 0 0 0 10.648438 8.6464844 L 6.9375 12.357422 L 4.2773438 10.583984 A 0.5 0.5 0 0 0 3.6484375 10.646484 L 1.0019531 13 L 1.0019531 5 A 1 1 0 0 1 2.0019531 4 z M 4.5019531 6 A 1.5 1.5 0 0 0 4.5019531 9 A 1.5 1.5 0 0 0 4.5019531 6 z "
     style="fill:#ffffff;fill-opacity:1" />
</svg>
