<?xml version="1.0" encoding="UTF-8" standalone="no"?>
<!-- Created with Inkscape (http://www.inkscape.org/) -->

<svg
   width="12.268mm"
   height="8.4709997mm"
   viewBox="0 0 12.268 8.4709997"
   version="1.1"
   id="svg72686"
   inkscape:version="1.2.2 (732a01da63, 2022-12-09)"
   sodipodi:docname="trackers-mobile.svg"
   xmlns:inkscape="http://www.inkscape.org/namespaces/inkscape"
   xmlns:sodipodi="http://sodipodi.sourceforge.net/DTD/sodipodi-0.dtd"
   xmlns="http://www.w3.org/2000/svg"
   xmlns:svg="http://www.w3.org/2000/svg">
  <sodipodi:namedview
     id="namedview72688"
     pagecolor="#ffffff"
     bordercolor="#000000"
     borderopacity="0.25"
     inkscape:showpageshadow="2"
     inkscape:pageopacity="0.0"
     inkscape:pagecheckerboard="0"
     inkscape:deskcolor="#d1d1d1"
     inkscape:document-units="mm"
     showgrid="false"
     inkscape:zoom="0.73851712"
     inkscape:cx="385.90846"
     inkscape:cy="236.96133"
     inkscape:window-width="1920"
     inkscape:window-height="1009"
     inkscape:window-x="-8"
     inkscape:window-y="-8"
     inkscape:window-maximized="1"
     inkscape:current-layer="layer1" />
  <defs
     id="defs72683" />
  <g
     inkscape:label="레이어 1"
     inkscape:groupmode="layer"
     id="layer1">
    <path
       id="path300"
       style="fill:#586579;fill-opacity:1;stroke-width:0.0495358"
       d="m 8.3825721,0 c -2.180966,0 -3.631793,0.01897 -3.708301,0.04806 -0.06912,0.02628 -0.137567,0.09845 -0.151928,0.160714 -0.01437,0.06226 -0.04467,0.548247 -0.0677,1.079521 -0.04671,1.077712 -0.01762,1.258599 0.211873,1.316198 0.175609,0.04408 0.361674,-0.011 0.422713,-0.125057 0.04364,-0.08154 0.197525,-1.242786 0.198954,-1.5012 4.5e-4,-0.08019 0.09176,-0.0863 1.214396,-0.0863 h 1.213363 v 3.36827 3.36827 h -0.740007 c -0.708774,0 -0.743685,0.0047 -0.817521,0.110071 -0.04241,0.06055 -0.077,0.204279 -0.077,0.318844 0,0.16602 0.02619,0.228744 0.130225,0.310575 h 5.29e-4 c 0.12695,0.09982 0.182648,0.102836 2.052071,0.102836 1.06291,0 1.9763779,-0.02055 2.0432859,-0.04599 0.143813,-0.05468 0.240546,-0.295886 0.199988,-0.498678 C 10.453953,7.658343 10.378668,7.632728 9.5959411,7.617626 l -0.715731,-0.01395 -0.01292,-3.355867 -0.0124,-3.355868 h 1.2634879 c 0.694933,0 1.2639,0.0056 1.265039,0.0124 0.0011,0.0068 0.04307,0.354225 0.09302,0.772046 0.100488,0.840677 0.132112,0.908602 0.426847,0.91829 0.144266,0.0047 0.204356,-0.02164 0.28267,-0.125057 0.09602,-0.126796 0.09814,-0.169197 0.05374,-1.208195 C 12.195384,0.224362 12.189464,0.181552 12.079497,0.092504 11.970429,0.004204 11.805654,4e-6 8.3825651,4e-6 Z m -7.132898,1.199927 c -0.41011096,0.02605 -0.72686696,0.184857 -0.96273196,0.482658 -0.185506,0.234223 -0.320571,0.732322 -0.279569,1.031461 0.03665,0.267392 0.196648,0.638443 0.342614,0.794784 0.172384,0.184636 0.506796,0.359534 0.76429496,0.399975 0.456019,0.07162 0.900201,-0.05039 1.213362,-0.333312 0.283611,-0.256226 0.397844,-0.512204 0.42323,-0.949813 0.02008,-0.346035 0.01023,-0.393633 -0.144694,-0.691431 C 2.3177171,1.379778 1.9085341,1.158078 1.2496741,1.199927 Z m 0.17415,4.167187 c -0.07753,-0.003 -0.152424,0.009 -0.261483,0.03462 -0.74772796,0.17593 -1.14579196,0.647927 -1.14721696,1.360123 -0.0012,0.610689 0.320329,1.097456 0.867647,1.314132 C 1.7789971,8.430796 2.7622431,7.74623 2.7622431,6.767542 c 0,-0.661054 -0.384046,-1.147551 -1.06195,-1.344621 -0.118967,-0.03458 -0.198943,-0.05278 -0.276469,-0.05581 z m -0.0801,0.655257 c 0.262393,-0.01461 0.530952,0.09186 0.674378,0.327112 0.225295,0.369531 0.08039,0.904057 -0.296623,1.093474 -0.09481,0.04763 -0.250876,0.0863 -0.346232,0.0863 -0.21789,0 -0.48334496,-0.132876 -0.60978196,-0.305407 -0.137197,-0.187212 -0.165785,-0.575766 -0.05891,-0.800985 C 0.82511114,6.173028 1.0813321,6.036986 1.3437251,6.022372 Z" />
  </g>
</svg>
