<svg width="1282" height="216" xmlns="http://www.w3.org/2000/svg" xmlns:xlink="http://www.w3.org/1999/xlink" overflow="hidden"><defs><clipPath id="clip0"><rect x="-11" y="465" width="1282" height="216"/></clipPath><clipPath id="clip1"><rect x="-10" y="466" width="1280" height="215"/></clipPath><clipPath id="clip2"><rect x="-10" y="466" width="1281" height="215"/></clipPath></defs><g clip-path="url(#clip0)" transform="translate(11 -465)"><g clip-path="url(#clip1)"><g clip-path="url(#clip2)"><g><path d="M481.976 212.913C472.183 210.69 467.966 208.406 460.871 201.478 453.411 194.194 449.812 185.019 449.812 173.284 449.812 156.42 457.496 143.683 471.402 137.497 479.654 133.826 502.306 129.008 524.829 126.133 533.55 125.02 541.372 123.917 542.211 123.683 544.467 123.051 544.272 102.139 541.968 97.6842 538.319 90.6284 529.76 87.5622 514.138 87.7143 499.562 87.856 492.24 89.9064 478.982 97.5579L468.162 103.802 464.035 101.844C454.878 97.4987 454.799 83.473 463.898 77.5112 473.718 71.0768 499.594 66.4193 519.949 67.4223 540.605 68.4402 549.99 72.2069 557.985 82.6891 566.066 93.2848 568.027 107.777 568.09 157.394 568.117 180.908 568.532 190.18 569.594 191.243 572.622 194.271 577.609 192.802 585.327 186.608 594.383 179.34 598.412 178.73 602.201 184.052 607.044 190.853 604.591 198.702 595.713 204.81 587.384 210.54 578.785 213.446 570.22 213.423 560.048 213.395 554.22 210.069 549.953 201.855 548.21 198.501 546.673 195.554 546.538 195.306 546.402 195.059 543.953 196.858 541.094 199.305 527.667 210.798 500.354 217.085 481.976 212.913ZM525.149 188.351C528.998 186.651 534.741 183.505 537.91 181.36L543.672 177.459 543.7 159.909 543.728 142.359 534.885 143.185C530.021 143.639 518.464 145.301 509.203 146.878 489.095 150.303 482.578 153.517 478.085 162.226 472.822 172.429 476.219 185.024 485.533 189.84 494.368 194.409 513.015 193.708 525.143 188.351ZM1301.78 212.943C1288.82 210.867 1276.92 206.814 1270.82 202.394 1268.1 200.42 1265.59 198.806 1265.25 198.806 1264.91 198.806 1264.62 200.315 1264.61 202.16 1264.59 206.197 1263.65 207.748 1260.13 209.601 1256.14 211.703 1251.92 211.3 1248.32 208.475L1245.11 205.947 1245.11 181.709C1245.11 158.045 1245.18 157.426 1247.82 155.573 1251.59 152.934 1258.02 153.168 1260.9 156.049 1262.21 157.355 1263.91 160.783 1264.69 163.666 1269.91 183.052 1284.26 193.263 1309.87 195.809 1318.89 196.706 1331.39 194.203 1336.59 190.458 1343.86 185.229 1345.78 173.299 1340.72 164.742 1337.59 159.443 1331.88 156.828 1302.18 147.106 1273.28 137.647 1264.23 133.4 1257.16 125.976 1251.65 120.196 1249.99 115.293 1249.99 104.854 1249.99 89.5196 1255.54 79.8589 1267.54 74.3164 1276.76 70.0598 1291.09 67.0692 1302.26 67.0692 1315.6 67.0692 1333.19 73.3517 1339.55 80.3892 1342.43 83.5706 1343.87 81.954 1343.89 75.4918 1343.92 69.7957 1346.95 67.0692 1353.27 67.0692 1356.72 67.0692 1358.86 67.8354 1360.5 69.6548 1362.62 72.0166 1362.79 74.0492 1362.5 93.1356 1362.19 113.821 1362.16 114.058 1359.08 116.775 1355.5 119.935 1350.99 120.327 1348.37 117.706 1347.37 116.709 1345.67 113.219 1344.58 109.95 1338.96 93.0276 1316.53 81.5181 1294.8 84.4037 1286.69 85.4796 1279.05 89.0048 1276.29 92.9397 1273.67 96.6894 1273.82 107.169 1276.55 110.524 1280.13 114.934 1283.97 116.628 1309.15 124.928 1335.78 133.707 1354.29 142.239 1360.53 148.621 1366.43 154.647 1368.7 162.717 1368.08 175.46 1367.31 191.487 1361.7 200.759 1348.78 207.348 1337.84 212.929 1317.1 215.397 1301.78 212.943ZM667.07 210.949C631.496 201.632 612.14 176.288 612.064 138.926 612.036 125.912 615.532 111.58 620.909 102.647 630.65 86.4633 651.829 72.8757 673.642 68.8147 697.148 64.4388 725.091 69.3627 735.946 79.7933 742.351 85.948 745.529 95.512 744.75 106.284 744.039 116.117 741.054 120.01 733.859 120.491 726.129 121.007 723.717 117.967 720.024 103.054 718.392 96.4617 716.398 90.6613 715.593 90.1639 711.391 87.5665 688.414 86.8083 678.851 88.9514 662.81 92.5461 647.757 104.434 642.449 117.699 639.936 123.979 639.522 127.071 639.506 139.646 639.492 153.53 639.684 154.692 643.281 162.212 647.584 171.208 650.526 174.677 658.496 180.16 674.487 191.159 698.049 192.542 715.873 183.529 718.14 182.382 722.997 179.203 726.668 176.464 734.089 170.926 738.951 170.124 744.212 173.572 750.652 177.791 749.478 188.147 741.674 195.95 736.322 201.303 722.631 207.833 709.978 211.069 697.657 214.221 679.367 214.169 667.07 210.949ZM996.295 210.324C982.548 206.171 974.156 201.226 964.452 191.562 954.954 182.103 949.441 171.564 946.817 157.848 938.654 115.182 961.228 76.946 999.324 68.9121 1016.56 65.2769 1034.43 67.1517 1047.98 74.0172 1066.3 83.301 1077.87 97.2308 1081.51 114.396 1084.39 127.993 1082.72 135.532 1076.31 137.843 1071.15 139.701 1045.15 141.28 1004.51 142.204 966.186 143.075 969.67 141.777 971.988 154.315 974.803 169.543 984.354 180.965 999.607 187.344 1007.09 190.472 1009.24 190.8 1022.5 190.837 1039.39 190.886 1043.45 189.443 1055.8 179.035 1064.6 171.621 1069.43 169.342 1074.3 170.316 1078.91 171.238 1082.88 175.993 1082.88 180.594 1082.88 192.648 1072.25 201.554 1048.73 209.213 1040.06 212.033 1035.75 212.659 1022.5 213.019 1008.25 213.407 1005.59 213.133 996.295 210.324ZM1049.4 123.153C1051.88 122.213 1052.38 121.192 1052.38 117.156 1052.38 109.782 1048.05 99.4905 1043.49 96.0238 1033.83 88.6744 1024.68 86.5206 1009.82 88.0938 989.371 90.2584 974.632 102.994 971.161 121.495L970.314 126.008 1008.37 125.148C1029.3 124.674 1047.76 123.777 1049.4 123.153ZM152.96 208.475C150.398 206.46 149.746 204.906 149.746 200.818 149.746 197.997 150.6 194.469 151.645 192.978 153.463 190.382 154.318 190.267 171.771 190.267L189.999 190.267 189.999 107.322 189.999 24.3767 160.114 24.3767C132.47 24.3767 130.228 24.5367 130.218 26.5113 130.182 32.8746 126.394 61.4597 125.319 63.4675 123.816 66.276 119.226 67.6334 114.902 66.548 109.25 65.1297 108.533 60.6728 109.683 34.135 110.25 21.0528 111.004 9.09474 111.357 7.5616 111.711 6.0284 113.393 4.24443 115.095 3.59731 116.979 2.88102 152.705 2.4206 206.41 2.4206 290.701 2.4206 294.755 2.52234 297.44 4.69677 300.148 6.88951 300.293 7.9442 301.384 33.4811 302.477 59.0656 302.431 60.102 300.067 63.2242 298.138 65.7707 296.657 66.4276 293.104 66.3108 285.846 66.0722 285.067 64.394 282.592 43.693 281.362 33.4045 280.335 24.8494 280.309 24.6816 280.281 24.5139 266.262 24.3764 249.149 24.3764L218.036 24.3764 218.35 107.017 218.664 189.657 236.293 189.997C255.567 190.369 257.415 190.994 258.734 197.588 259.733 202.582 257.35 208.524 253.808 209.871 252.161 210.497 229.675 211.003 203.502 211.003 157.469 211.003 156.086 210.933 152.96 208.475ZM319.295 210.138C315.041 208.574 313.197 205.684 313.197 200.581 313.197 191.506 315.2 190.345 331.493 189.975L345.521 189.658 345.84 141.171C346.202 86.1309 347.371 91.235 335.153 94.5146 325.854 97.0106 323.762 96.8183 320.072 93.1284 315.964 89.0202 315.76 83.1604 319.6 79.5571 322.546 76.7932 353.762 67.0695 359.69 67.0695 363.935 67.0695 365.105 69.1711 366.14 78.6574 366.579 82.6827 367.243 88.0248 367.616 90.5288L368.294 95.0814 372.874 89.2872C382.638 76.9345 399.904 68.5947 418.098 67.4428 427.482 66.8485 428.784 67.0394 431.82 69.456L435.175 72.1257 435.175 88.8841C435.175 104.063 434.94 105.894 432.688 108.312 429.331 111.914 420.381 112.045 416.878 108.542 414.903 106.567 414.438 104.476 414.438 97.5641L414.438 89.0256 409.688 89.0256C401.899 89.0256 389.604 93.5276 381.895 99.2024 369.893 108.038 370.526 105.174 370.526 150.582L370.526 190.268 388.736 190.268C408.722 190.268 409.863 190.639 411.404 197.654 412.48 202.555 409.986 208.462 406.24 209.887 403.146 211.063 322.445 211.297 319.295 210.139ZM768.56 209.775C765.127 208.392 763.296 204.898 763.296 199.729 763.296 192.172 765.289 190.951 778.746 190.267L790.741 189.657 791.055 107.786 791.368 25.9148 776.382 29.6151C758.775 33.9626 755.448 33.6458 752.827 27.3727 750.738 22.3726 751.508 18.1508 754.896 16.035 757.632 14.3261 806.57-0.0291061 809.56 1.16587e-05 815.268 0.0561748 815.099-1.82855 815.747 68.8186L816.357 135.306 844.812 116.13C872.581 97.4166 873.155 96.9465 868.598 96.6411 857.894 95.9239 855.981 95.1669 853.914 90.8327 852.246 87.3348 852.163 85.891 853.393 81.7867 855.536 74.6326 858.263 74.1533 894.218 74.6117 922.606 74.9738 924.617 75.1471 926.247 77.3783 929.147 81.3485 925.679 93.869 921.204 95.5864 920.118 96.0032 914.906 96.3441 909.622 96.3441L900.014 96.3441 878.007 112.806C865.903 121.861 856 129.81 856 130.471 856 132.606 893.945 180.485 898.224 183.749 901.921 186.569 903.972 187.019 917.301 187.938 930.389 188.84 932.5 189.29 934.371 191.582 936.928 194.714 937.161 203.329 934.774 206.475 931.871 210.303 925.614 211.004 894.357 211.004 865.27 211.004 863.649 210.882 861.109 208.517 859.641 207.149 858.379 204.816 858.305 203.332 857.801 193.271 860.119 190.267 868.387 190.267 871.638 190.267 874.297 189.938 874.297 189.536 874.297 189.134 866.179 177.928 856.257 164.634L838.217 140.463 826.967 147.373 815.717 154.284 816.037 171.971 816.357 189.657 827.335 189.982C836.753 190.261 838.616 190.67 840.447 192.862 843.681 196.732 843.249 204.349 839.588 208.01L836.594 211.004 803.909 210.927C785.933 210.884 770.026 210.366 768.56 209.776ZM1106.44 209.775C1100.86 207.527 1099.42 198.931 1103.7 193.481 1106.17 190.344 1106.57 190.267 1120.17 190.267L1134.11 190.267 1134.11 141.476C1134.11 103.248 1133.78 92.6878 1132.59 92.6992 1131.75 92.7063 1128.04 93.5239 1124.35 94.5144 1115.19 96.9741 1112.83 96.812 1108.93 93.4526 1104.76 89.8679 1104.28 82.9135 1107.95 79.3268 1110.4 76.9249 1142.52 67.0692 1147.89 67.0692 1152.51 67.0692 1153.69 69.6061 1155.1 82.5451L1156.4 94.5151 1165.08 85.8792C1174.78 76.222 1183.28 71.5563 1196.12 68.8342 1208.91 66.1233 1217.3 66.4875 1220.5 69.8923 1222.96 72.507 1223.15 73.9482 1223.15 89.4089 1223.15 104.476 1222.92 106.34 1220.71 108.542 1218.23 111.024 1209.43 111.961 1206.56 110.048 1203.8 108.204 1202.42 103.597 1202.42 96.2548L1202.42 88.6865 1195.1 89.3502C1185.27 90.2417 1173.52 95.9159 1165.19 103.796L1158.47 110.147 1158.79 149.902 1159.12 189.658 1177.41 189.97C1194.32 190.258 1195.87 190.477 1197.84 192.849 1201.08 196.737 1200.64 204.35 1196.98 208.01L1193.99 211.004 1151.55 210.927C1128.2 210.884 1107.9 210.366 1106.44 209.776ZM21.7318 201.284C8.25451 195.948 0.340981 183.959 0.371264 168.921 0.406345 151.384 10.204 139.769 28.6162 135.437 33.9872 134.173 36.0084 134.252 41.8673 135.955 58.5602 140.808 68.0204 152.783 68.0204 169.061 68.0204 193.16 43.8007 210.02 21.7318 201.284ZM42.3806 185.691C51.6642 181.027 55.2342 167.874 49.6865 158.775 42.623 147.189 23.2292 148.269 17.3905 160.573 14.7589 166.119 15.4622 175.685 18.8405 180.295 21.9539 184.543 28.5011 187.824 33.8665 187.824 36.2145 187.824 40.0459 186.864 42.3806 185.691ZM27.4292 98.6716C21.0885 97.6758 12.8604 93.3677 8.61557 88.8212 5.02125 84.9714 1.08416 75.8359 0.181676 69.2516-0.827959 61.8855 2.49496 49.6209 7.06292 43.8533 12.8709 36.5202 20.6659 32.6122 30.7645 31.9708 46.9885 30.9403 57.0672 36.3943 64.1704 50.0477 67.9854 57.3807 68.2299 58.5484 67.7356 67.0692 67.1104 77.845 64.3017 84.1514 57.318 90.4607 49.6067 97.4275 38.6583 100.435 27.4292 98.6716Z" fill="#586579" transform="matrix(1.00021 0 0 1 -98.4717 466.397)"/></g></g></g></g></svg>